<svg id="filled_outline" height="512" viewBox="0 0 64 64" width="512" xmlns="http://www.w3.org/2000/svg" data-name="filled outline"><path d="m27 32 2-6-2-6h-6l-2 6 2 6z" fill="#cccb51"/><path d="m27 44 2-6-2-6h-6l-2 6 2 6z" fill="#d2d153"/><path d="m27 56 2-6-2-6h-6l-2 6 2 6z" fill="#cccb51"/><path d="m35 50 2-6-2-6h-6l-2 6 2 6z" fill="#d9d856"/><path d="m19 38 2-6-2-6h-6l-2 6 2 6z" fill="#d9d856"/><path d="m19 50 2-6-2-6h-6l-2 6 2 6z" fill="#dfde58"/><path d="m19 26 2-6-2-4h-1.80174a6.79293 6.79293 0 0 0 -6.07578 3.755l-.12248.245 2 6z" fill="#d2d153"/><path d="m35 38 2-6-2-6h-6l-2 6 2 6z" fill="#e5e45a"/><path d="m11 32h-3l-1.05724-2.11448a8.68826 8.68826 0 0 1 0-7.771l.78085-1.56169a1 1 0 0 1 .89439-.55283h2.382l2 6z" fill="#e5e45a"/><path d="m11 44h-3l-1.05724-2.11448a8.68826 8.68826 0 0 1 0-7.771l1.05724-2.11452h3l2 6z" fill="#d2d153"/><path d="m19 16 .508-.762a5.02582 5.02582 0 0 1 4.18174-2.238h.82138a4.65051 4.65051 0 0 1 3.86946 2.07088l.61942.92912-2 4h-6z" fill="#e5e45a"/><path d="m29 16-2 4 2 6h6l2-6-2-4z" fill="#d9d856"/><path d="m27 56v3l1.70711 1.70711a1 1 0 0 0 .7071.29289h5.17158a1 1 0 0 0 .7071-.29289l1.70711-1.70711v-3l-2-6h-6z" fill="#e5e45a"/><path d="m13 50-1 3 2.81257 3.7501a1 1 0 0 0 .48378.34868l2.70365.90122 3-2-2-6z" fill="#d2d153"/><path d="m11 44h-3l-.48214.7232a5.202 5.202 0 0 0 -.5016 4.81745l.149.37253a4.39574 4.39574 0 0 0 3.0152 2.63194l1.81954.45488 1-3z" fill="#cccb51"/><path d="m18 58 3-2h6v3l-2.63193 1.75462a1 1 0 0 1 -.79723.13809l-3.30213-.82553a1 1 0 0 1 -.46457-.263z" fill="#d9d856"/><path d="m37.026 32-2-6 2-6h6l2 6-2 6z" fill="#cccb51"/><path d="m37.026 44-2-6 2-6h6l2 6-2 6z" fill="#d2d153"/><path d="m37.026 56-2-6 2-6h6l2 6-2 6z" fill="#cccb51"/><path d="m45.026 38-2-6 2-6h6l2 6-2 6z" fill="#d9d856"/><path d="m45.026 50-2-6 2-6h6l2 6-2 6z" fill="#dfde58"/><path d="m45.02551 26-2-6 2-4h1.80174a6.79291 6.79291 0 0 1 6.07575 3.755l.12248.245-2 6z" fill="#d2d153"/><path d="m53.02551 32h3l1.05724-2.11448a8.68826 8.68826 0 0 0 0-7.771l-.78084-1.56169a1 1 0 0 0 -.89443-.55283h-2.382l-2 6z" fill="#e5e45a"/><path d="m53.02551 44h3l1.05724-2.11448a8.68826 8.68826 0 0 0 0-7.771l-1.05724-2.11452h-3l-2 6z" fill="#d2d153"/><path d="m45.02551 16-.508-.762a5.02581 5.02581 0 0 0 -4.18174-2.238h-.82137a4.65052 4.65052 0 0 0 -3.86947 2.07088l-.61942.92912 2 4h6z" fill="#e5e45a"/><path d="m51.02551 50 1 3-2.81257 3.7501a1 1 0 0 1 -.48377.34868l-2.70366.90122-3-2 2-6z" fill="#d2d153"/><path d="m53.02551 44h3l.48214.7232a5.2019 5.2019 0 0 1 .5016 4.81745l-.149.37253a4.39574 4.39574 0 0 1 -3.0152 2.63194l-1.81954.45488-1-3z" fill="#cccb51"/><path d="m46.02551 58-3-2h-6v3l2.63193 1.75462a1 1 0 0 0 .79724.13809l3.30212-.82553a1 1 0 0 0 .46457-.263z" fill="#d9d856"/><path d="m29 16 1.83875-6.43561a1.89739 1.89739 0 0 0 -.02437-1.12124l-.98193-2.94579a1.89737 1.89737 0 0 1 1.8-2.49736 1.89737 1.89737 0 0 1 1.8 1.29737l1.38192 4.14578a1.89739 1.89739 0 0 1 .02437 1.12124l-1.83874 6.43561z" fill="#b98348"/><g fill="#231f20"><path d="m57.95215 33.667-.8338-1.667.8338-1.667a9.74248 9.74248 0 0 0 0-8.666l-.78125-1.56054a1.98639 1.98639 0 0 0 -1.78906-1.10646h-1.791a7.73922 7.73922 0 0 0 -6.78912-4h-1.26638l-.21112-.31641a6.015 6.015 0 0 0 -5.01367-2.68359h-.82129a5.63719 5.63719 0 0 0 -4.70215 2.5166l-.32251.4834h-.1386l1.47479-5.16211a2.88741 2.88741 0 0 0 -.03809-1.71089l-1.38184-4.1455a2.89694 2.89694 0 0 0 -5.09863-.77833 2.86253 2.86253 0 0 0 -.39844 2.61036l.98242 2.94726a.89713.89713 0 0 1 .01079.52921l-1.27807 4.473a5.62932 5.62932 0 0 0 -4.08819-1.763h-.82129a6.015 6.015 0 0 0 -5.01367 2.68359l-.21112.31641h-1.26642a7.73957 7.73957 0 0 0 -6.78894 4h-1.79114a1.98724 1.98724 0 0 0 -1.78906 1.10547l-.78125 1.56153a9.74248 9.74248 0 0 0 0 8.666l.8338 1.667-.8338 1.667a9.74248 9.74248 0 0 0 0 8.666l.798 1.59546-.16034.24048a6.1957 6.1957 0 0 0 -.59766 5.74218l.14844.373a5.40985 5.40985 0 0 0 3.70215 3.23047l1.47461.36932 2.59863 3.46564a1.99145 1.99145 0 0 0 .96777.69727l2.48078.82745 1.63641 1.63641a1.99212 1.99212 0 0 0 .92969.52637l3.30175.82519a2.00516 2.00516 0 0 0 1.59473-.27539l1.94989-1.30011 1.1273 1.12732a2.0144 2.0144 0 0 0 1.41406.58594h5.17188a2.0144 2.0144 0 0 0 1.41406-.58594l1.12726-1.12726 1.94989 1.30011a1.99033 1.99033 0 0 0 1.59375.27539l3.30273-.82519a1.99212 1.99212 0 0 0 .92969-.52637l1.63635-1.63635 2.48181-.82751a1.98623 1.98623 0 0 0 .96582-.69727l2.599-3.465 1.47522-.369a5.41249 5.41249 0 0 0 3.70215-3.23242l.14844-.37011a6.19906 6.19906 0 0 0 -.59766-5.74414l-.16034-.24048.798-1.59546a9.74248 9.74248 0 0 0 .00004-8.666zm-2.57031 9.333h-1.66114l-.83349-2.5-.83321-2.5.83319-2.5.83351-2.5h1.66114l.78125 1.56152a7.72778 7.72778 0 0 1 0 6.877zm-17.66114 12-1.6667-5.00006.83321-2.49994.83349-2.5h4.5586l.83349 2.5.83319 2.49988-1.66693 5.00012zm-29.88379-13.56152a7.72778 7.72778 0 0 1 0-6.877l.78125-1.56148h1.66114l.83349 2.5.83321 2.5-.83319 2.5-.83351 2.5h-1.66114zm26.54493-24.43848 1.53808 3.07715-1.64062 4.92285h-4.5586l-1.64062-4.92285 1.53808-3.07715zm15.89746 10 .83349 2.5.83321 2.5-.83319 2.5-.83351 2.5h-4.5586l-.83349-2.5-.83321-2.5.83319-2.5.83351-2.5zm-28.5586 16-.83349-2.5-.83321-2.5.83319-2.5.83351-2.5h4.5586l.83349 2.5.83321 2.5-.83319 2.5-.83351 2.5zm8-6-.83349-2.5-.83321-2.5.83319-2.5.83351-2.5h4.5586l.83349 2.5.83321 2.5-.83319 2.5-.83351 2.5zm8 6-.83349-2.5-.83321-2.5.83319-2.5.83351-2.5h4.5586l.83349 2.5.83321 2.5-.83319 2.5-.83351 2.5zm4.5583-22 1.667 5.00012-.83321 2.49988-.83349 2.5h-4.5586l-.83349-2.5-.83321-2.49988 1.667-5.00012zm-16 0 1.667 5.00012-.83321 2.49988-.83349 2.5h-4.5586l-.83349-2.5-.83321-2.49988 1.667-5.00012zm-7.9997 6 .83349 2.5.83321 2.5-.83319 2.5-.83351 2.5h-4.5586l-.83349-2.5-.83321-2.5.83319-2.5.83351-2.5zm-4.5586 22-.83349-2.5-.83321-2.5.83319-2.5.83351-2.5h4.5586l.83349 2.5.83321 2.5-.83319 2.5-.83351 2.5zm8.00025 6-1.66695-5.00012.83321-2.49988.83349-2.5h4.5586l.83349 2.5.83319 2.49994-1.66668 5.00006zm7.99975-6-.83349-2.5-.83321-2.5.83319-2.5.83351-2.5h4.5586l.83349 2.5.83321 2.5-.83319 2.5-.83351 2.5zm16 0-.83349-2.5-.83321-2.5.83319-2.5.83351-2.5h4.5586l.83349 2.5.83321 2.5-.83319 2.5-.83351 2.5zm10.44239-26.43848a7.72778 7.72778 0 0 1 0 6.877l-.78125 1.56148h-1.66114l-.83349-2.5-.83321-2.5.83844-2.51575.82826-2.48425h1.66114zm-4.24317-2.4834-1.64062 4.92188h-4.5586l-1.64062-4.92285 1.53808-3.07715h1.1836a5.76262 5.76262 0 0 1 5.11816 3.07812zm-12.43066-6.07812h.82129a4.01812 4.01812 0 0 1 3.34961 1.793l.18548.27923-1.46423 2.92777h-4.76282l-1.46423-2.9278.29681-.44622a3.64288 3.64288 0 0 1 3.03809-1.62598zm-8.585-9.627a.93145.93145 0 0 1 1.58008.24121l1.38183 4.14648a.89713.89713 0 0 1 .01083.52931l-1.63158 5.71h-1.91942l1.47479-5.16211a2.88741 2.88741 0 0 0 -.03809-1.71089l-.98145-2.94629a.88415.88415 0 0 1 .12305-.80766zm-7.21481 9.627h.82129a3.64288 3.64288 0 0 1 3.03809 1.626l.29681.44622-1.46423 2.92778h-4.76282l-1.46423-2.9278.18548-.27923a4.01812 4.01812 0 0 1 3.34961-1.79297zm-6.49121 3h1.1836l1.53808 3.07715-1.64062 4.92285h-4.5586l-1.64062-4.92188a5.763 5.763 0 0 1 5.11816-3.07812zm-9.36133 5.56152.78125-1.56152h1.66114l.82824 2.48425.83846 2.51575-.83319 2.5-.83351 2.5h-1.66114l-.78125-1.56152a7.72778 7.72778 0 0 1 0-6.87696zm.25684 26.98148-.14844-.374a4.19781 4.19781 0 0 1 .4043-3.89063l.18555-.27837h1.74414l.83349 2.5.83319 2.49994-.20056.60162-.40167 1.20313-.9209-.23047a3.40006 3.40006 0 0 1 -2.3291-2.03122zm5.02075 3.27667.47339-1.4212.13281-.39847h4.5586l1.53027 4.5918-1.957 1.30468-2.24024-.74609zm10.699 7.10321-3.30274-.82617-.94122-.94122 1.73319-1.15549h4.69727v1.46484zm10.77244.07712h-5.17188l-1.41406-1.41406v-2.42383l1.7207-5.16211h4.5586l1.7207 5.16211v2.42383zm8.90332-.90234-3.30274.82519-2.18652-1.45801v-1.46484h4.69727l1.73321 1.15546zm4.89844-2.94727-2.24024.74609-1.957-1.30468 1.53024-4.5918h4.5586l.13281.39844.47339 1.4212zm7.667-6.97949-.14844.37109a3.40274 3.40274 0 0 1 -2.3291 2.03321l-.9209.22949-.40167-1.20313-.20056-.60162.83318-2.49994.83349-2.5h1.74414l.18555.27832a4.20115 4.20115 0 0 1 .4043 3.89258z"/><path d="m57.95215 33.667-.8338-1.667.8338-1.667a9.74248 9.74248 0 0 0 0-8.666l-.78125-1.56054a1.98639 1.98639 0 0 0 -1.78906-1.10646h-1.791a7.73922 7.73922 0 0 0 -6.78912-4h-1.26638l-.21112-.31641a6.015 6.015 0 0 0 -5.01367-2.68359h-.82129a5.63719 5.63719 0 0 0 -4.70215 2.5166l-.32251.4834h-.1386l1.47479-5.16211a2.88741 2.88741 0 0 0 -.03809-1.71089l-1.38184-4.1455a2.89694 2.89694 0 0 0 -5.09863-.77833 2.86253 2.86253 0 0 0 -.39844 2.61036l.98242 2.94726a.89713.89713 0 0 1 .01079.52921l-1.27807 4.473a5.62932 5.62932 0 0 0 -4.08819-1.763h-.82129a6.015 6.015 0 0 0 -5.01367 2.68359l-.21112.31641h-1.26642a7.73957 7.73957 0 0 0 -6.78894 4h-1.79114a1.98724 1.98724 0 0 0 -1.78906 1.10547l-.78125 1.56153a9.74248 9.74248 0 0 0 0 8.666l.8338 1.667-.8338 1.667a9.74248 9.74248 0 0 0 0 8.666l.798 1.59546-.16034.24048a6.1957 6.1957 0 0 0 -.59766 5.74218l.14844.373a5.40985 5.40985 0 0 0 3.70215 3.23047l1.47461.36932 2.59863 3.46564a1.99145 1.99145 0 0 0 .96777.69727l2.48078.82745 1.63641 1.63641a1.99212 1.99212 0 0 0 .92969.52637l3.30175.82519a2.00516 2.00516 0 0 0 1.59473-.27539l1.94989-1.30011 1.1273 1.12732a2.0144 2.0144 0 0 0 1.41406.58594h5.17188a2.0144 2.0144 0 0 0 1.41406-.58594l1.12726-1.12726 1.94989 1.30011a1.99033 1.99033 0 0 0 1.59375.27539l3.30273-.82519a1.99212 1.99212 0 0 0 .92969-.52637l1.63635-1.63635 2.48181-.82751a1.98623 1.98623 0 0 0 .96582-.69727l2.599-3.465 1.47522-.369a5.41249 5.41249 0 0 0 3.70215-3.23242l.14844-.37011a6.19906 6.19906 0 0 0 -.59766-5.74414l-.16034-.24048.798-1.59546a9.74248 9.74248 0 0 0 .00004-8.666zm-2.57031 9.333h-1.66114l-.83349-2.5-.83321-2.5.83319-2.5.83351-2.5h1.66114l.78125 1.56152a7.72778 7.72778 0 0 1 0 6.877zm-17.66114 12-1.6667-5.00006.83321-2.49994.83349-2.5h4.5586l.83349 2.5.83319 2.49988-1.66693 5.00012zm-29.88379-13.56152a7.72778 7.72778 0 0 1 0-6.877l.78125-1.56148h1.66114l.83349 2.5.83321 2.5-.83319 2.5-.83351 2.5h-1.66114zm26.54493-24.43848 1.53808 3.07715-1.64062 4.92285h-4.5586l-1.64062-4.92285 1.53808-3.07715zm15.89746 10 .83349 2.5.83321 2.5-.83319 2.5-.83351 2.5h-4.5586l-.83349-2.5-.83321-2.5.83319-2.5.83351-2.5zm-28.5586 16-.83349-2.5-.83321-2.5.83319-2.5.83351-2.5h4.5586l.83349 2.5.83321 2.5-.83319 2.5-.83351 2.5zm8-6-.83349-2.5-.83321-2.5.83319-2.5.83351-2.5h4.5586l.83349 2.5.83321 2.5-.83319 2.5-.83351 2.5zm8 6-.83349-2.5-.83321-2.5.83319-2.5.83351-2.5h4.5586l.83349 2.5.83321 2.5-.83319 2.5-.83351 2.5zm4.5583-22 1.667 5.00012-.83321 2.49988-.83349 2.5h-4.5586l-.83349-2.5-.83321-2.49988 1.667-5.00012zm-16 0 1.667 5.00012-.83321 2.49988-.83349 2.5h-4.5586l-.83349-2.5-.83321-2.49988 1.667-5.00012zm-7.9997 6 .83349 2.5.83321 2.5-.83319 2.5-.83351 2.5h-4.5586l-.83349-2.5-.83321-2.5.83319-2.5.83351-2.5zm-4.5586 22-.83349-2.5-.83321-2.5.83319-2.5.83351-2.5h4.5586l.83349 2.5.83321 2.5-.83319 2.5-.83351 2.5zm8.00025 6-1.66695-5.00012.83321-2.49988.83349-2.5h4.5586l.83349 2.5.83319 2.49994-1.66668 5.00006zm7.99975-6-.83349-2.5-.83321-2.5.83319-2.5.83351-2.5h4.5586l.83349 2.5.83321 2.5-.83319 2.5-.83351 2.5zm16 0-.83349-2.5-.83321-2.5.83319-2.5.83351-2.5h4.5586l.83349 2.5.83321 2.5-.83319 2.5-.83351 2.5zm10.44239-26.43848a7.72778 7.72778 0 0 1 0 6.877l-.78125 1.56148h-1.66114l-.83349-2.5-.83321-2.5.83844-2.51575.82826-2.48425h1.66114zm-4.24317-2.4834-1.64062 4.92188h-4.5586l-1.64062-4.92285 1.53808-3.07715h1.1836a5.76262 5.76262 0 0 1 5.11816 3.07812zm-12.43066-6.07812h.82129a4.01812 4.01812 0 0 1 3.34961 1.793l.18548.27923-1.46423 2.92777h-4.76282l-1.46423-2.9278.29681-.44622a3.64288 3.64288 0 0 1 3.03809-1.62598zm-8.585-9.627a.93145.93145 0 0 1 1.58008.24121l1.38183 4.14648a.89713.89713 0 0 1 .01083.52931l-1.63158 5.71h-1.91942l1.47479-5.16211a2.88741 2.88741 0 0 0 -.03809-1.71089l-.98145-2.94629a.88415.88415 0 0 1 .12305-.80766zm-7.21481 9.627h.82129a3.64288 3.64288 0 0 1 3.03809 1.626l.29681.44622-1.46423 2.92778h-4.76282l-1.46423-2.9278.18548-.27923a4.01812 4.01812 0 0 1 3.34961-1.79297zm-6.49121 3h1.1836l1.53808 3.07715-1.64062 4.92285h-4.5586l-1.64062-4.92188a5.763 5.763 0 0 1 5.11816-3.07812zm-9.36133 5.56152.78125-1.56152h1.66114l.82824 2.48425.83846 2.51575-.83319 2.5-.83351 2.5h-1.66114l-.78125-1.56152a7.72778 7.72778 0 0 1 0-6.87696zm.25684 26.98148-.14844-.374a4.19781 4.19781 0 0 1 .4043-3.89063l.18555-.27837h1.74414l.83349 2.5.83319 2.49994-.20056.60162-.40167 1.20313-.9209-.23047a3.40006 3.40006 0 0 1 -2.3291-2.03122zm5.02075 3.27667.47339-1.4212.13281-.39847h4.5586l1.53027 4.5918-1.957 1.30468-2.24024-.74609zm10.699 7.10321-3.30274-.82617-.94122-.94122 1.73319-1.15549h4.69727v1.46484zm10.77244.07712h-5.17188l-1.41406-1.41406v-2.42383l1.7207-5.16211h4.5586l1.7207 5.16211v2.42383zm8.90332-.90234-3.30274.82519-2.18652-1.45801v-1.46484h4.69727l1.73321 1.15546zm4.89844-2.94727-2.24024.74609-1.957-1.30468 1.53024-4.5918h4.5586l.13281.39844.47339 1.4212zm7.667-6.97949-.14844.37109a3.40274 3.40274 0 0 1 -2.3291 2.03321l-.9209.22949-.40167-1.20313-.20056-.60162.83318-2.49994.83349-2.5h1.74414l.18555.27832a4.20115 4.20115 0 0 1 .4043 3.89258z"/></g></svg>