<svg height="512pt" viewBox="-15 0 512 512.0003" width="512pt" xmlns="http://www.w3.org/2000/svg"><path d="m165.992188 19.226562c-16.800782-12.296874-37.800782-19.1992182-59.996094-19.1992182h-60c-8.398438 0-14.996094 6.6015622-14.996094 15.0000002 0 57.898437 47.097656 105.996094 104.992188 105.996094h59.996093c8.402344 0 15-7.597657 15-16 0-35.398438-17.699219-66.894532-44.996093-85.796876zm0 0" fill="#a8d32a"/><path d="m390.078125 19.828125c-1.5 4.199219-12.898437 26.097656-27.898437 56.097656-20.398438 41.097657-31.199219 87.996094-31.199219 133.589844v16.5c0 8.402344-6.597657 15-15 15-8.398438 0-14.996094-6.597656-14.996094-15v-16.5c0-32.996094 5.097656-65.695313 14.996094-97.191406 5.101562-16.800781 11.699219-34 19.5-49.898438l8.699219-17.398437-62.09375 26.398437c-42.898438 18.597657-76.496094 55.59375-91.796876 99.992188-2.402343 6-8.101562 9.902343-14.398437 9.902343-1.5 0-3.300781-.300781-4.800781-.601562-7.800782-2.699219-11.996094-11.398438-9.300782-19.199219 18.300782-52.199219 57.601563-95.792969 108.597657-117.691406l99.59375-42.601563c7.5-3.296874 16.496093.300782 19.796875 7.800782 1.5 3.601562 1.5 7.199218.300781 10.800781zm0 0" fill="#99503d"/><path d="m411.382812 462.617188-21.152343-21.148438c-5.855469-5.859375-5.855469-15.351562 0-21.210938 5.859375-5.859374 15.351562-5.859374 21.210937 0l21.152344 21.152344c5.859375 5.859375 5.859375 15.351563 0 21.207032-5.859375 5.859374-15.351562 5.859374-21.210938 0zm0 0" fill="#ff193d"/><path d="m390.230469 271.761719c-5.859375-5.859375-5.859375-15.351563 0-21.210938l21.152343-21.152343c5.859376-5.855469 15.351563-5.855469 21.207032 0 5.859375 5.859374 5.859375 15.351562 0 21.210937l-21.148438 21.152344c-5.859375 5.859375-15.351562 5.859375-21.210937 0zm0 0" fill="#ff193d"/><path d="m466.972656 361.007812h-30.996094c-8.292968 0-15-6.707031-15-15 0-8.289062 6.707032-14.996093 15-14.996093h30.996094c8.292969 0 15 6.707031 15 14.996093 0 8.292969-6.707031 15-15 15zm0 0" fill="#ff193d"/><path d="m220.523438 271.761719-21.152344-21.152344c-5.855469-5.859375-5.855469-15.351563 0-21.210937 5.859375-5.855469 15.351562-5.855469 21.210937 0l21.152344 21.152343c5.859375 5.859375 5.859375 15.351563 0 21.210938s-15.351563 5.859375-21.210937 0zm0 0" fill="#ff4949"/><path d="m195.988281 361.007812h-29.996093c-8.292969 0-15-6.707031-15-15 0-8.289062 6.707031-14.996093 15-14.996093h29.996093c8.292969 0 15 6.707031 15 14.996093 0 8.292969-6.707031 15-15 15zm0 0" fill="#ff4949"/><path d="m199.371094 462.617188c-5.855469-5.855469-5.855469-15.347657 0-21.207032l21.152344-21.152344c5.859374-5.859374 15.351562-5.859374 21.210937 0 5.859375 5.859376 5.859375 15.351563 0 21.210938l-21.152344 21.148438c-5.859375 5.859374-15.347656 5.859374-21.210937 0zm0 0" fill="#ff4949"/><path d="m330.980469 466.003906v30.996094c0 8.402344-6.597657 15-15 15-8.398438 0-14.996094-6.597656-14.996094-15v-30.996094c0-8.402344 6.597656-15 14.996094-15 8.402343 0 15 6.597656 15 15zm0 0" fill="#ff4949"/><path d="m330.980469 466.003906v30.996094c0 8.402344-6.597657 15-15 15v-60.996094c8.402343 0 15 6.597656 15 15zm0 0" fill="#ff193d"/><path d="m315.980469 211.015625c-74.394531 0-134.992188 60.597656-134.992188 134.992187 0 74.398438 60.597657 134.996094 134.992188 134.996094 74.398437 0 134.992187-60.597656 134.992187-134.996094 0-74.394531-60.59375-134.992187-134.992187-134.992187zm0 0" fill="#ff6c6c"/><path d="m450.972656 346.007812c0 74.398438-60.59375 134.996094-134.992187 134.996094v-269.988281c74.398437 0 134.992187 60.597656 134.992187 134.992187zm0 0" fill="#ff4949"/><path d="m345.980469 286.011719c0 8.402343-6.597657 15-15 15h-29.996094c-8.402344 0-15-6.597657-15-15 0-8.398438 6.597656-14.996094 15-14.996094h29.996094c8.402343 0 15 6.597656 15 14.996094zm0 0" fill="#ff4949"/><path d="m270.984375 361.007812h-29.996094c-8.292969 0-15-6.707031-15-15 0-8.289062 6.707031-14.996093 15-14.996093h29.996094c8.289063 0 15 6.707031 15 14.996093 0 8.292969-6.710937 15-15 15zm0 0" fill="#ff4949"/><path d="m390.976562 361.007812h-29.996093c-8.292969 0-15-6.707031-15-15 0-8.289062 6.707031-14.996093 15-14.996093h29.996093c8.292969 0 15 6.707031 15 14.996093 0 8.292969-6.707031 15-15 15zm0 0" fill="#ff193d"/><path d="m345.980469 406.007812c0 8.398438-6.597657 14.996094-15 14.996094h-29.996094c-8.402344 0-15-6.597656-15-14.996094 0-8.402343 6.597656-15 15-15h29.996094c8.402343 0 15 6.597657 15 15zm0 0" fill="#ff4949"/><g fill="#ff193d"><path d="m345.980469 406.007812c0 8.398438-6.597657 14.996094-15 14.996094h-15v-29.996094h15c8.402343 0 15 6.597657 15 15zm0 0"/><path d="m330.980469 301.011719h-15v-29.996094h15c8.402343 0 15 6.597656 15 14.996094 0 8.402343-6.597657 15-15 15zm0 0"/><path d="m261.390625 402.621094-21.148437-21.148438c-5.859376-5.859375-5.859376-15.351562 0-21.210937 5.855468-5.859375 15.347656-5.859375 21.207031 0l21.152343 21.152343c5.859376 5.855469 5.859376 15.351563 0 21.207032-5.859374 5.859375-15.351562 5.859375-21.210937 0zm0 0"/><path d="m240.238281 211.765625c-5.855469-5.859375-5.855469-15.351563 0-21.210937l21.152344-21.152344c5.859375-5.855469 15.351563-5.855469 21.210937 0 5.855469 5.859375 5.855469 15.351562 0 21.210937l-21.152343 21.152344c-5.859375 5.855469-15.351563 5.855469-21.210938 0zm0 0"/><path d="m315.980469 301.011719h-29.996094c-8.289063 0-15-6.707031-15-15 0-8.289063 6.710937-14.996094 15-14.996094h29.996094c8.292969 0 15 6.707031 15 14.996094 0 8.292969-6.707031 15-15 15zm0 0"/></g><path d="m70.53125 211.765625-21.148438-21.152344c-5.859374-5.859375-5.859374-15.351562 0-21.210937 5.855469-5.855469 15.351563-5.855469 21.207032 0l21.152344 21.152344c5.859374 5.859374 5.859374 15.351562 0 21.210937-5.859376 5.855469-15.351563 5.855469-21.210938 0zm0 0" fill="#ff4949"/><path d="m45.996094 301.011719h-30.996094c-8.292969 0-15-6.707031-15-15 0-8.289063 6.707031-14.996094 15-14.996094h30.996094c8.292968 0 15 6.707031 15 14.996094 0 8.292969-6.707032 15-15 15zm0 0" fill="#ff4949"/><path d="m49.382812 402.621094c-5.859374-5.855469-5.859374-15.351563 0-21.207032l21.148438-21.152343c5.859375-5.859375 15.351562-5.859375 21.210938 0 5.859374 5.859375 5.859374 15.351562 0 21.210937l-21.152344 21.148438c-5.855469 5.859375-15.347656 5.859375-21.207032 0zm0 0" fill="#ff4949"/><path d="m180.988281 406.007812v29.996094c0 8.402344-6.597656 15-14.996093 15-8.402344 0-15-6.597656-15-15v-29.996094c0-8.402343 6.597656-15 15-15 8.398437 0 14.996093 6.597657 14.996093 15zm0 0" fill="#ff4949"/><path d="m180.988281 406.007812v29.996094c0 8.402344-6.597656 15-14.996093 15v-59.996094c8.398437 0 14.996093 6.597657 14.996093 15zm0 0" fill="#ff193d"/><path d="m165.992188 151.019531c-74.394532 0-134.992188 60.597657-134.992188 134.992188s60.597656 134.992187 134.992188 134.992187c74.394531 0 134.992187-60.597656 134.992187-134.992187s-60.597656-134.992188-134.992187-134.992188zm0 0" fill="#ff6c6c"/><path d="m300.984375 286.011719c0 74.394531-60.597656 134.992187-134.992187 134.992187v-269.984375c74.394531 0 134.992187 60.597657 134.992187 134.992188zm0 0" fill="#ff4949"/><path d="m195.988281 226.015625c0 8.402344-6.597656 15-15 15h-29.996093c-8.402344 0-15-6.597656-15-15 0-8.398437 6.597656-15 15-15h29.996093c8.402344 0 15 6.601563 15 15zm0 0" fill="#ff4949"/><path d="m120.992188 301.011719h-29.996094c-8.292969 0-15-6.707031-15-15 0-8.289063 6.707031-14.996094 15-14.996094h29.996094c8.292968 0 15 6.707031 15 14.996094 0 8.292969-6.707032 15-15 15zm0 0" fill="#ff4949"/><path d="m240.988281 301.011719h-30c-8.289062 0-15-6.707031-15-15 0-8.289063 6.710938-14.996094 15-14.996094h30c8.289063 0 14.996094 6.707031 14.996094 14.996094 0 8.292969-6.707031 15-14.996094 15zm0 0" fill="#ff193d"/><path d="m195.988281 346.007812c0 8.402344-6.597656 15-15 15h-29.996093c-8.402344 0-15-6.597656-15-15 0-8.398437 6.597656-14.996093 15-14.996093h29.996093c8.402344 0 15 6.597656 15 14.996093zm0 0" fill="#ff4949"/><path d="m195.988281 346.007812c0 8.402344-6.597656 15-15 15h-14.996093v-29.996093h14.996093c8.402344 0 15 6.597656 15 14.996093zm0 0" fill="#ff193d"/><path d="m180.988281 241.015625h-14.996093v-30h14.996093c8.402344 0 15 6.601563 15 15 0 8.402344-6.597656 15-15 15zm0 0" fill="#ff193d"/></svg>